<svg width="77" height="76" viewBox="0 0 77 76" fill="none" xmlns="http://www.w3.org/2000/svg">
<ellipse cx="38.5" cy="38" rx="38.5" ry="38" fill="#826348" fill-opacity="0.2"/>
<path fill-rule="evenodd" clip-rule="evenodd" d="M51.507 29.4525C53.5685 28.5029 54.9995 26.4186 54.9995 24C54.9995 20.6863 52.3132 18 48.9995 18C46.9137 18 45.0765 19.0643 44.0013 20.6795C42.7696 20.1003 41.441 19.6929 40.0487 19.4883C38.4993 19.1755 36.5663 19.3747 35.7885 19.5057C29.1154 20.5422 23.9931 26.2469 23.9931 33.1526C23.9931 33.6717 24.0222 34.1845 24.0788 34.6895V45.7932L22.5032 47.313L22.4799 47.3384C22.007 47.856 21.377 48.8057 21.3731 49.8935C21.371 50.48 21.5542 51.0865 22.0059 51.615C22.4427 52.1262 23.071 52.4955 23.848 52.7478L24.0123 52.8011H32.7151C33.1893 55.4089 35.3237 57.4752 37.9244 57.4752C39.4613 57.4752 40.7943 56.6404 41.7068 55.5827C42.3818 54.8003 42.8925 53.8235 43.1129 52.8011H51.6181L51.7241 52.7799C52.4113 52.6425 53.4376 52.223 54.0354 51.2812C54.7059 50.2247 54.6193 48.8834 53.7263 47.4212L53.6316 47.2662L52.0017 45.9134V32.4934C51.9521 31.4446 51.7827 30.4268 51.507 29.4525ZM43.1427 22.6909C43.049 23.1123 42.9995 23.5504 42.9995 24C42.9995 27.3137 45.6858 30 48.9995 30C49.112 30 49.2239 29.9969 49.3349 29.9908C49.6225 30.9966 49.7763 32.0572 49.7763 33.1526C49.7763 33.1999 49.7769 33.2482 49.7774 33.2968C49.7786 33.3948 49.7798 33.4939 49.7763 33.5885L49.8191 34.7417V46.9383L51.9513 48.7079C52.458 49.6065 52.273 49.9849 52.1926 50.1116C52.0483 50.339 51.7255 50.5312 51.3883 50.6185H24.3684C23.9503 50.4632 23.7535 50.3005 23.6651 50.197C23.5813 50.0989 23.5553 50.0106 23.5557 49.9014C23.5567 49.6045 23.7691 49.1724 24.0704 48.8337L26.2614 46.7204V34.5637L26.254 34.5005C26.2023 34.0587 26.1757 33.6089 26.1757 33.1526C26.1757 27.3583 30.4794 22.536 36.13 21.6615L36.1454 21.6589C36.8313 21.5427 38.4764 21.3911 39.6388 21.6323L39.6714 21.6391L39.7044 21.6438C40.9214 21.8198 42.0772 22.1786 43.1427 22.6909ZM37.9244 55.2926C36.6473 55.2926 35.3765 54.2969 34.9497 52.8011H40.8474C40.6784 53.2758 40.4081 53.7468 40.0542 54.1569C39.4238 54.8877 38.6485 55.2926 37.9244 55.2926Z" fill="#373027"/>
<circle cx="49" cy="24" r="7" fill="#2E7549"/>
</svg>
