<svg width="111" height="99" viewBox="0 0 111 99" fill="none" xmlns="http://www.w3.org/2000/svg">
<path d="M6.225 96.225C4.585 96.225 3.24 95.74 2.19 94.77C1.15 93.79 0.63 92.45 0.63 90.75C0.63 89.05 1.15 87.715 2.19 86.745C3.24 85.765 4.585 85.275 6.225 85.275C7.255 85.275 8.07 85.445 8.67 85.785C8.87 85.895 9.005 86.005 9.075 86.115C9.155 86.225 9.195 86.415 9.195 86.685V87.51C9.195 87.86 9.035 88.035 8.715 88.035C8.625 88.035 8.325 87.96 7.815 87.81C7.315 87.66 6.845 87.585 6.405 87.585C5.385 87.585 4.59 87.865 4.02 88.425C3.46 88.975 3.18 89.75 3.18 90.75C3.18 91.75 3.46 92.53 4.02 93.09C4.59 93.64 5.385 93.915 6.405 93.915C6.845 93.915 7.315 93.84 7.815 93.69C8.325 93.54 8.625 93.465 8.715 93.465C9.035 93.465 9.195 93.64 9.195 93.99V94.815C9.195 95.085 9.155 95.28 9.075 95.4C9.005 95.51 8.87 95.62 8.67 95.73C8.09 96.06 7.275 96.225 6.225 96.225ZM19.8648 94.71C18.8048 95.72 17.4948 96.225 15.9348 96.225C14.3748 96.225 13.0648 95.72 12.0048 94.71C10.9548 93.69 10.4298 92.37 10.4298 90.75C10.4298 89.13 10.9548 87.815 12.0048 86.805C13.0648 85.785 14.3748 85.275 15.9348 85.275C17.4948 85.275 18.8048 85.785 19.8648 86.805C20.9248 87.815 21.4548 89.13 21.4548 90.75C21.4548 92.37 20.9248 93.69 19.8648 94.71ZM15.9348 93.945C16.8248 93.945 17.5398 93.655 18.0798 93.075C18.6298 92.495 18.9048 91.72 18.9048 90.75C18.9048 89.78 18.6298 89.005 18.0798 88.425C17.5398 87.845 16.8248 87.555 15.9348 87.555C15.0148 87.555 14.2898 87.845 13.7598 88.425C13.2398 89.005 12.9798 89.78 12.9798 90.75C12.9798 91.72 13.2398 92.495 13.7598 93.075C14.2898 93.655 15.0148 93.945 15.9348 93.945ZM33.7448 85.5C34.0248 85.5 34.2248 85.56 34.3448 85.68C34.4748 85.8 34.5398 86.005 34.5398 86.295V95.205C34.5398 95.495 34.4748 95.7 34.3448 95.82C34.2248 95.94 34.0248 96 33.7448 96H32.9348C32.6548 96 32.4498 95.94 32.3198 95.82C32.1998 95.7 32.1398 95.495 32.1398 95.205V89.67L30.0848 92.97C29.9148 93.23 29.7598 93.4 29.6198 93.48C29.4898 93.56 29.3098 93.6 29.0798 93.6H28.6298C28.4098 93.6 28.2248 93.56 28.0748 93.48C27.9348 93.4 27.7848 93.23 27.6248 92.97L25.5698 89.67V95.205C25.5698 95.485 25.5098 95.69 25.3898 95.82C25.2698 95.94 25.0648 96 24.7748 96H23.9648C23.6748 96 23.4698 95.94 23.3498 95.82C23.2298 95.69 23.1698 95.485 23.1698 95.205V86.295C23.1698 86.015 23.2298 85.815 23.3498 85.695C23.4698 85.565 23.6748 85.5 23.9648 85.5H24.6848C25.0448 85.5 25.2998 85.54 25.4498 85.62C25.6098 85.69 25.7698 85.855 25.9298 86.115L28.8548 90.87L31.7798 86.115C31.9398 85.855 32.0948 85.69 32.2448 85.62C32.4048 85.54 32.6648 85.5 33.0248 85.5H33.7448ZM40.575 85.5C42.175 85.5 43.38 85.835 44.19 86.505C45.01 87.165 45.42 88.14 45.42 89.43C45.42 90.72 45.01 91.7 44.19 92.37C43.38 93.03 42.175 93.36 40.575 93.36H39.225V95.205C39.225 95.485 39.165 95.69 39.045 95.82C38.925 95.94 38.72 96 38.43 96H37.5C37.21 96 37.005 95.94 36.885 95.82C36.765 95.69 36.705 95.485 36.705 95.205V86.295C36.705 86.015 36.765 85.815 36.885 85.695C37.005 85.565 37.21 85.5 37.5 85.5H40.575ZM40.77 91.08C42.17 91.08 42.87 90.53 42.87 89.43C42.87 88.33 42.17 87.78 40.77 87.78H39.225V91.08H40.77ZM55.9293 94.71C54.8693 95.72 53.5593 96.225 51.9993 96.225C50.4393 96.225 49.1293 95.72 48.0693 94.71C47.0193 93.69 46.4943 92.37 46.4943 90.75C46.4943 89.13 47.0193 87.815 48.0693 86.805C49.1293 85.785 50.4393 85.275 51.9993 85.275C53.5593 85.275 54.8693 85.785 55.9293 86.805C56.9893 87.815 57.5193 89.13 57.5193 90.75C57.5193 92.37 56.9893 93.69 55.9293 94.71ZM51.9993 93.945C52.8893 93.945 53.6043 93.655 54.1443 93.075C54.6943 92.495 54.9693 91.72 54.9693 90.75C54.9693 89.78 54.6943 89.005 54.1443 88.425C53.6043 87.845 52.8893 87.555 51.9993 87.555C51.0793 87.555 50.3543 87.845 49.8243 88.425C49.3043 89.005 49.0443 89.78 49.0443 90.75C49.0443 91.72 49.3043 92.495 49.8243 93.075C50.3543 93.655 51.0793 93.945 51.9993 93.945ZM62.67 96.225C61.37 96.225 60.365 96.035 59.655 95.655C59.425 95.535 59.275 95.41 59.205 95.28C59.135 95.15 59.1 94.96 59.1 94.71V93.855C59.1 93.485 59.265 93.3 59.595 93.3C59.705 93.3 59.91 93.36 60.21 93.48C60.51 93.6 60.905 93.72 61.395 93.84C61.885 93.95 62.41 94.005 62.97 94.005C63.99 94.005 64.5 93.7 64.5 93.09C64.5 92.78 64.37 92.535 64.11 92.355C63.86 92.175 63.315 92 62.475 91.83L62.1 91.755C61 91.535 60.2 91.175 59.7 90.675C59.2 90.165 58.95 89.485 58.95 88.635C58.95 87.585 59.29 86.765 59.97 86.175C60.65 85.575 61.695 85.275 63.105 85.275C64.265 85.275 65.245 85.48 66.045 85.89C66.275 86.01 66.425 86.135 66.495 86.265C66.565 86.385 66.6 86.575 66.6 86.835V87.615C66.6 87.985 66.435 88.17 66.105 88.17C66.035 88.17 65.655 88.06 64.965 87.84C64.285 87.61 63.65 87.495 63.06 87.495C62 87.495 61.47 87.79 61.47 88.38C61.47 88.67 61.585 88.89 61.815 89.04C62.055 89.18 62.555 89.34 63.315 89.52L63.75 89.625C64.91 89.905 65.745 90.29 66.255 90.78C66.765 91.27 67.02 91.955 67.02 92.835C67.02 93.875 66.665 94.7 65.955 95.31C65.245 95.92 64.15 96.225 62.67 96.225ZM76.4822 85.5C76.7622 85.5 76.9622 85.56 77.0822 85.68C77.2122 85.8 77.2772 86.005 77.2772 86.295V86.985C77.2772 87.275 77.2122 87.48 77.0822 87.6C76.9622 87.72 76.7622 87.78 76.4822 87.78H73.8572V95.205C73.8572 95.485 73.7972 95.69 73.6772 95.82C73.5572 95.94 73.3522 96 73.0622 96H72.1322C71.8422 96 71.6372 95.94 71.5172 95.82C71.3972 95.69 71.3372 95.485 71.3372 95.205V87.78H68.7122C68.4322 87.78 68.2272 87.72 68.0972 87.6C67.9772 87.48 67.9172 87.275 67.9172 86.985V86.295C67.9172 86.005 67.9772 85.8 68.0972 85.68C68.2272 85.56 68.4322 85.5 68.7122 85.5H76.4822ZM85.9331 93.72C86.2231 93.72 86.4281 93.785 86.5481 93.915C86.6681 94.035 86.7281 94.235 86.7281 94.515V95.205C86.7281 95.485 86.6681 95.69 86.5481 95.82C86.4281 95.94 86.2231 96 85.9331 96H79.4531C79.1631 96 78.9581 95.94 78.8381 95.82C78.7181 95.69 78.6581 95.485 78.6581 95.205V86.295C78.6581 86.015 78.7181 85.815 78.8381 85.695C78.9581 85.565 79.1631 85.5 79.4531 85.5H85.8731C86.1631 85.5 86.3681 85.565 86.4881 85.695C86.6081 85.815 86.6681 86.015 86.6681 86.295V86.985C86.6681 87.265 86.6081 87.47 86.4881 87.6C86.3681 87.72 86.1631 87.78 85.8731 87.78H81.1781V89.61H85.1831C85.4631 89.61 85.6631 89.67 85.7831 89.79C85.9131 89.91 85.9781 90.115 85.9781 90.405V91.065C85.9781 91.355 85.9131 91.56 85.7831 91.68C85.6631 91.8 85.4631 91.86 85.1831 91.86H81.1781V93.72H85.9331ZM93.4857 96.225C91.8457 96.225 90.5007 95.74 89.4507 94.77C88.4107 93.79 87.8907 92.45 87.8907 90.75C87.8907 89.05 88.4107 87.715 89.4507 86.745C90.5007 85.765 91.8457 85.275 93.4857 85.275C94.5157 85.275 95.3307 85.445 95.9307 85.785C96.1307 85.895 96.2657 86.005 96.3357 86.115C96.4157 86.225 96.4557 86.415 96.4557 86.685V87.51C96.4557 87.86 96.2957 88.035 95.9757 88.035C95.8857 88.035 95.5857 87.96 95.0757 87.81C94.5757 87.66 94.1057 87.585 93.6657 87.585C92.6457 87.585 91.8507 87.865 91.2807 88.425C90.7207 88.975 90.4407 89.75 90.4407 90.75C90.4407 91.75 90.7207 92.53 91.2807 93.09C91.8507 93.64 92.6457 93.915 93.6657 93.915C94.1057 93.915 94.5757 93.84 95.0757 93.69C95.5857 93.54 95.8857 93.465 95.9757 93.465C96.2957 93.465 96.4557 93.64 96.4557 93.99V94.815C96.4557 95.085 96.4157 95.28 96.3357 95.4C96.2657 95.51 96.1307 95.62 95.9307 95.73C95.3507 96.06 94.5357 96.225 93.4857 96.225ZM106.882 85.5C107.172 85.5 107.377 85.565 107.497 85.695C107.617 85.815 107.677 86.015 107.677 86.295V95.205C107.677 95.485 107.617 95.69 107.497 95.82C107.377 95.94 107.172 96 106.882 96H105.952C105.662 96 105.457 95.94 105.337 95.82C105.217 95.69 105.157 95.485 105.157 95.205V91.77H100.807V95.205C100.807 95.485 100.747 95.69 100.627 95.82C100.507 95.94 100.302 96 100.012 96H99.082C98.792 96 98.587 95.94 98.467 95.82C98.347 95.69 98.287 95.485 98.287 95.205V86.295C98.287 86.015 98.347 85.815 98.467 85.695C98.587 85.565 98.792 85.5 99.082 85.5H100.012C100.302 85.5 100.507 85.565 100.627 85.695C100.747 85.815 100.807 86.015 100.807 86.295V89.49H105.157V86.295C105.157 86.015 105.217 85.815 105.337 85.695C105.457 85.565 105.662 85.5 105.952 85.5H106.882Z" fill="#FCF7ED"/>
<path d="M47.6127 53.6589C50.21 58.8535 49.9739 64.8746 49.5311 67.2358L38.4631 57.4958L39.4961 58.9716L40.5291 60.4473C42.5952 62.9561 46.3829 66.793 48.3506 68.4163C45.7434 68.0228 39.1419 66.0256 33.5932 61.1852C26.6572 55.1347 25.9193 52.0356 23.5581 46.4278C21.6691 41.9415 21.8856 36.8846 22.2299 34.917C23.017 35.9008 25.9783 38.2522 31.5271 39.7869C38.4631 41.7054 44.3661 47.1657 47.6127 53.6589Z" fill="#FFC00E"/>
<path d="M59.2802 35.5035C46.9462 43.4222 50.7793 59.8055 54.2377 67.0073C58.0321 63.9041 66.0975 57.0697 68.0197 55.1423C70.118 53.0384 73.4229 47.6711 74.777 44.9109C74.6765 45.1619 74.8693 47.657 71.3144 52.5903C67.412 58.0058 59.8686 65.3687 56.0253 68.2204C66.6297 67.8065 73.6637 63.609 81.3104 55.1906C88.9571 46.7723 88.0945 37.5689 87.6701 31.082C87.3305 25.8924 85.0697 20.6657 83.9817 18.701C80.887 21.0024 71.6142 27.5849 59.2802 35.5035Z" fill="#38AB34"/>
<path fill-rule="evenodd" clip-rule="evenodd" d="M83.6862 17.0202C82.1862 14.0712 80.1889 11.4083 77.6945 9.03154C71.4374 3.01051 63.7045 0 54.4958 0C45.2872 0 37.5543 3.01051 31.2972 9.03154C25.0991 14.9935 22 22.7559 22 32.3188C22 32.6483 22.0037 32.9757 22.011 33.301C22.8752 34.3005 25.8651 36.5496 31.3398 37.9711C33.969 38.6538 36.459 39.8433 38.7203 41.4062C37.6085 38.794 37.0526 35.7648 37.0526 32.3188C37.0526 26.5929 38.5873 22.0181 41.6569 18.5944C44.7855 15.1706 49.0651 13.4588 54.4958 13.4588C59.7495 13.4588 63.9701 15.1706 67.1577 18.5944C69.0676 20.6085 70.4158 23.0209 71.2021 25.8317C77.276 21.6919 81.6954 18.5092 83.6862 17.0202ZM74.6423 43.3711H74.5485C74.5944 43.2794 74.6385 43.1901 74.6806 43.1034C74.6673 43.1371 74.6594 43.2112 74.6471 43.3263L74.6423 43.3711Z" fill="#FCF7ED"/>
</svg>
